<svg xmlns="http://www.w3.org/2000/svg" xmlns:xlink="http://www.w3.org/1999/xlink" contentStyleType="text/css" height="1913px" preserveAspectRatio="none" style="width:537px;height:1913px;background:#FFFFFF;" version="1.1" viewBox="0 0 537 1913" width="537px" zoomAndPan="magnify"><defs><filter height="1" id="b1gosfqozvix2i0" width="1" x="0" y="0"><feFlood flood-color="#FFFF00" result="flood"/><feComposite in="SourceGraphic" in2="flood" operator="over"/></filter></defs><g><!--cluster transformer--><g id="cluster_transformer"><rect fill="none" height="998.8" rx="2.5" ry="2.5" style="stroke:#181818;stroke-width:1.0;" width="524" x="7" y="342.36"/><path d="M114.8018,342.36 L114.8018,367.9538 L104.8018,377.9538 L7,377.9538 " fill="none" style="stroke:#181818;stroke-width:1.0;"/><text fill="#000000" font-family="sans-serif" font-size="14" font-weight="bold" lengthAdjust="spacing" textLength="97.8018" x="10" y="356.3551">Transformer</text><text fill="#000000" font-family="sans-serif" font-size="14" font-weight="bold" lengthAdjust="spacing" textLength="31.5684" x="43.1167" y="372.652">(3x)</text></g><!--cluster Concat alternative?\n\n<color:666>The swap+conv+swap</color>\n<color:666>can be replaced by</color>\n<color:666>FC(E/2, E)</color>\n<color:666></color>\n<color:666>XXX: In Keras, Conv1d would</color>\n<color:666>work without the swaps</color>\n<color:666> => probably that's why</color>--><g id="cluster_Concat alternative?\n\n&lt;color:666&gt;The swap+conv+swap&lt;/color&gt;\n&lt;color:666&gt;can be replaced by&lt;/color&gt;\n&lt;color:666&gt;FC(E/2, E)&lt;/color&gt;\n&lt;color:666&gt;&lt;/color&gt;\n&lt;color:666&gt;XXX: In Keras, Conv1d would&lt;/color&gt;\n&lt;color:666&gt;work without the swaps&lt;/color&gt;\n&lt;color:666&gt; =&gt; probably that's why&lt;/color&gt;"><rect fill="#FFA500" height="477.18" rx="2.5" ry="2.5" style="stroke:#FFFFFF;stroke-width:1.0;" width="476" x="31" y="532.23"/><text fill="#000000" font-family="sans-serif" font-size="14" font-weight="bold" lengthAdjust="spacing" textLength="154.1572" x="191.9214" y="547.2251">Concat alternative?</text><text fill="#000000" font-family="sans-serif" font-size="14" font-weight="bold" lengthAdjust="spacing" textLength="4.874" x="266.563" y="563.522">&#160;</text><text fill="#666666" font-family="sans-serif" font-size="14" font-weight="bold" lengthAdjust="spacing" textLength="175.8271" x="181.0864" y="579.8189">The swap+conv+swap</text><text fill="#666666" font-family="sans-serif" font-size="14" font-weight="bold" lengthAdjust="spacing" textLength="149.4814" x="194.2593" y="596.1157">can be replaced by</text><text fill="#666666" font-family="sans-serif" font-size="14" font-weight="bold" lengthAdjust="spacing" textLength="76.8086" x="230.5957" y="612.4126">FC(E/2, E)</text><text fill="#000000" font-family="sans-serif" font-size="14" font-weight="bold" lengthAdjust="spacing" textLength="4.874" x="266.563" y="628.7095">&#160;</text><text fill="#666666" font-family="sans-serif" font-size="14" font-weight="bold" lengthAdjust="spacing" textLength="229.0859" x="154.457" y="645.0064">XXX: In Keras, Conv1d would</text><text fill="#666666" font-family="sans-serif" font-size="14" font-weight="bold" lengthAdjust="spacing" textLength="189.2803" x="174.3599" y="661.3032">work without the swaps</text><text fill="#666666" font-family="sans-serif" font-size="14" font-weight="bold" lengthAdjust="spacing" textLength="185.4863" x="178.6938" y="677.6001">=&gt; probably that's why</text></g><!--cluster r1--><g id="cluster_r1"><rect fill="#FFA500" height="347.17" rx="2.5" ry="2.5" style="stroke:#FFFFFF;stroke-width:1.0;" width="156" x="191" y="1419.16"/><text fill="#000000" font-family="sans-serif" font-size="14" font-weight="bold" lengthAdjust="spacing" textLength="4.874" x="266.563" y="1434.1551">&#160;</text></g><!--entity t1split--><g id="elem_t1split"><rect fill="#F1F1F1" height="75.875" rx="2.5" ry="2.5" style="stroke:#181818;stroke-width:0.5;" width="113.6387" x="215.18" y="393.36"/><text fill="#000000" font-family="sans-serif" font-size="14" lengthAdjust="spacing" textLength="93.6387" x="225.18" y="416.3551">self-attention</text><text fill="#888888" font-family="sans-serif" font-size="10" lengthAdjust="spacing" textLength="73.3057" x="235.3465" y="428.9391">embed_dim=E</text><text fill="#000000" font-family="sans-serif" font-size="14" lengthAdjust="spacing" textLength="4.4502" x="269.7742" y="444.2926">&#160;</text><text fill="#888888" font-family="sans-serif" font-size="10" lengthAdjust="spacing" textLength="42.7393" x="250.6297" y="456.8766">(2-head)</text></g><!--entity t1h1--><g id="elem_t1h1"><path d="M67.87,412.33 L156.1366,412.33 C161.1366,412.33 161.1366,431.2987 161.1366,431.2987 C161.1366,431.2987 161.1366,450.2675 156.1366,450.2675 L67.87,450.2675 C62.87,450.2675 62.87,431.2987 62.87,431.2987 C62.87,431.2987 62.87,412.33 67.87,412.33 " fill="#F1F1F1" style="stroke:#181818;stroke-width:0.5;"/><path d="M156.1366,412.33 C151.1366,412.33 151.1366,431.2987 151.1366,431.2987 C151.1366,450.2675 156.1366,450.2675 156.1366,450.2675 " fill="none" style="stroke:#181818;stroke-width:0.5;"/><text fill="#000000" font-family="sans-serif" font-size="14" font-weight="bold" lengthAdjust="spacing" textLength="67.0264" x="73.4901" y="430.3251">Head #1</text><text fill="#000000" font-family="monospace" font-size="10" lengthAdjust="spacing" textLength="78.2666" x="67.87" y="442.9091">embed_dim=E/2</text></g><!--entity t1h2--><g id="elem_t1h2"><path d="M377.87,412.33 L466.1366,412.33 C471.1366,412.33 471.1366,431.2987 471.1366,431.2987 C471.1366,431.2987 471.1366,450.2675 466.1366,450.2675 L377.87,450.2675 C372.87,450.2675 372.87,431.2987 372.87,431.2987 C372.87,431.2987 372.87,412.33 377.87,412.33 " fill="#F1F1F1" style="stroke:#181818;stroke-width:0.5;"/><path d="M466.1366,412.33 C461.1366,412.33 461.1366,431.2987 461.1366,431.2987 C461.1366,450.2675 466.1366,450.2675 466.1366,450.2675 " fill="none" style="stroke:#181818;stroke-width:0.5;"/><text fill="#000000" font-family="sans-serif" font-size="14" font-weight="bold" lengthAdjust="spacing" textLength="67.0264" x="383.4901" y="430.3251">Head #2</text><text fill="#000000" font-family="monospace" font-size="10" lengthAdjust="spacing" textLength="78.2666" x="377.87" y="442.9091">embed_dim=E/2</text></g><!--entity t1fc1--><g id="elem_t1fc1"><polygon fill="#F1F1F1" points="329.21,1120.34,299.1,1087.41,238.9,1087.41,208.79,1120.34,238.9,1153.28,299.1,1153.28,329.21,1120.34" style="stroke:#181818;stroke-width:0.5;"/><text fill="#000000" font-family="sans-serif" font-size="14" font-weight="bold" lengthAdjust="spacing" textLength="19.8379" x="259.0761" y="1105.4051">FC</text><text fill="#000000" filter="url(#b1gosfqozvix2i0)" font-family="monospace" font-size="10" lengthAdjust="spacing" textLength="6.0205" x="238.8925" y="1117.9891">&#160;</text><text fill="#000000" filter="url(#b1gosfqozvix2i0)" font-family="monospace" font-size="10" font-weight="bold" lengthAdjust="spacing" textLength="6.0205" x="244.913" y="1117.9891">E</text><text fill="#000000" filter="url(#b1gosfqozvix2i0)" font-family="monospace" font-size="10" lengthAdjust="spacing" textLength="6.0205" x="250.9336" y="1117.9891">&#160;</text><text fill="#000000" font-family="monospace" font-size="10" lengthAdjust="spacing" textLength="36.123" x="262.9746" y="1117.9891">&#8594;&#160;1024</text><text fill="#000000" font-family="sans-serif" font-size="14" lengthAdjust="spacing" textLength="4.4502" x="266.77" y="1133.3426">&#160;</text><text fill="#888888" font-family="sans-serif" font-size="10" lengthAdjust="spacing" textLength="55.4395" x="241.2754" y="1145.9266">N channels</text></g><!--entity t1fc2--><g id="elem_t1fc2"><polygon fill="#F1F1F1" points="324.44,1292.22,296.72,1259.28,241.28,1259.28,213.56,1292.22,241.28,1325.16,296.72,1325.16,324.44,1292.22" style="stroke:#181818;stroke-width:0.5;"/><text fill="#000000" font-family="sans-serif" font-size="14" font-weight="bold" lengthAdjust="spacing" textLength="19.8379" x="259.0805" y="1277.2751">FC</text><text fill="#000000" font-family="monospace" font-size="10" lengthAdjust="spacing" textLength="48.1641" x="244.9174" y="1289.8591">1024&#160;&#8594;&#160;E</text><text fill="#000000" font-family="sans-serif" font-size="14" lengthAdjust="spacing" textLength="4.4502" x="266.7744" y="1305.2126">&#160;</text><text fill="#888888" font-family="sans-serif" font-size="10" lengthAdjust="spacing" textLength="55.4395" x="241.2797" y="1317.7966">N channels</text></g><!--entity t1h1swap1--><g id="elem_t1h1swap1"><rect fill="#FFFF00" height="36.2969" rx="2.5" ry="2.5" style="stroke:#181818;stroke-width:0.5;" width="56.21" x="81.9" y="697.23"/><text fill="#000000" font-family="sans-serif" font-size="14" lengthAdjust="spacing" textLength="36.21" x="91.9" y="720.2251">swap</text></g><!--entity t1h2swap1--><g id="elem_t1h2swap1"><rect fill="#FFFF00" height="36.2969" rx="2.5" ry="2.5" style="stroke:#181818;stroke-width:0.5;" width="56.21" x="398.9" y="697.23"/><text fill="#000000" font-family="sans-serif" font-size="14" lengthAdjust="spacing" textLength="36.21" x="408.9" y="720.2251">swap</text></g><!--entity t1h1conv--><g id="elem_t1h1conv"><polygon fill="#F1F1F1" points="46.86,820.53,56.86,810.53,171.1471,810.53,171.1471,870.1081,161.1471,880.1081,46.86,880.1081,46.86,820.53" style="stroke:#181818;stroke-width:0.5;"/><line style="stroke:#181818;stroke-width:0.5;" x1="161.1471" x2="171.1471" y1="820.53" y2="810.53"/><line style="stroke:#181818;stroke-width:0.5;" x1="46.86" x2="161.1471" y1="820.53" y2="820.53"/><line style="stroke:#181818;stroke-width:0.5;" x1="161.1471" x2="161.1471" y1="820.53" y2="880.1081"/><text fill="#000000" font-family="sans-serif" font-size="14" font-weight="bold" lengthAdjust="spacing" textLength="58.748" x="74.6295" y="843.5251">Conv1d</text><text fill="#000000" font-family="monospace" font-size="10" lengthAdjust="spacing" textLength="78.2666" x="64.8703" y="856.1091">kernel_size=1</text><text fill="#000000" font-family="monospace" font-size="10" lengthAdjust="spacing" textLength="84.2871" x="61.86" y="867.7497">out_channels=E</text></g><!--entity t1h2conv--><g id="elem_t1h2conv"><polygon fill="#F1F1F1" points="366.86,820.53,376.86,810.53,491.1471,810.53,491.1471,870.1081,481.1471,880.1081,366.86,880.1081,366.86,820.53" style="stroke:#181818;stroke-width:0.5;"/><line style="stroke:#181818;stroke-width:0.5;" x1="481.1471" x2="491.1471" y1="820.53" y2="810.53"/><line style="stroke:#181818;stroke-width:0.5;" x1="366.86" x2="481.1471" y1="820.53" y2="820.53"/><line style="stroke:#181818;stroke-width:0.5;" x1="481.1471" x2="481.1471" y1="820.53" y2="880.1081"/><text fill="#000000" font-family="sans-serif" font-size="14" font-weight="bold" lengthAdjust="spacing" textLength="58.748" x="394.6295" y="843.5251">Conv1d</text><text fill="#000000" font-family="monospace" font-size="10" lengthAdjust="spacing" textLength="78.2666" x="384.8703" y="856.1091">kernel_size=1</text><text fill="#000000" font-family="monospace" font-size="10" lengthAdjust="spacing" textLength="84.2871" x="381.86" y="867.7497">out_channels=E</text></g><!--entity t1sum--><g id="elem_t1sum"><rect fill="#F1F1F1" height="36.2969" rx="2.5" ry="2.5" style="stroke:#181818;stroke-width:0.5;" width="49.8047" x="244.1" y="827.17"/><text fill="#000000" font-family="sans-serif" font-size="14" lengthAdjust="spacing" textLength="29.8047" x="254.1" y="850.1651">sum</text></g><!--entity t1swap--><g id="elem_t1swap"><rect fill="#FFFF00" height="36.2969" rx="2.5" ry="2.5" style="stroke:#181818;stroke-width:0.5;" width="56.21" x="240.9" y="957.11"/><text fill="#000000" font-family="sans-serif" font-size="14" lengthAdjust="spacing" textLength="36.21" x="250.9" y="980.1051">swap</text></g><!--entity r1swap1--><g id="elem_r1swap1"><rect fill="#FFFF00" height="36.2969" rx="2.5" ry="2.5" style="stroke:#181818;stroke-width:0.5;" width="56.21" x="240.9" y="1454.16"/><text fill="#000000" font-family="sans-serif" font-size="14" lengthAdjust="spacing" textLength="36.21" x="250.9" y="1477.1551">swap</text></g><!--entity r1conv1--><g id="elem_r1conv1"><polygon fill="#F1F1F1" points="206.86,1577.45,216.86,1567.45,331.1471,1567.45,331.1471,1627.0281,321.1471,1637.0281,206.86,1637.0281,206.86,1577.45" style="stroke:#181818;stroke-width:0.5;"/><line style="stroke:#181818;stroke-width:0.5;" x1="321.1471" x2="331.1471" y1="1577.45" y2="1567.45"/><line style="stroke:#181818;stroke-width:0.5;" x1="206.86" x2="321.1471" y1="1577.45" y2="1577.45"/><line style="stroke:#181818;stroke-width:0.5;" x1="321.1471" x2="321.1471" y1="1577.45" y2="1637.0281"/><text fill="#000000" font-family="sans-serif" font-size="14" font-weight="bold" lengthAdjust="spacing" textLength="58.748" x="234.6295" y="1600.4451">Conv1d</text><text fill="#000000" font-family="monospace" font-size="10" lengthAdjust="spacing" textLength="78.2666" x="224.8703" y="1613.0291">kernel_size=1</text><text fill="#000000" font-family="monospace" font-size="10" lengthAdjust="spacing" textLength="84.2871" x="221.86" y="1624.6697">out_channels=E</text></g><!--entity r1swap2--><g id="elem_r1swap2"><rect fill="#FFFF00" height="36.2969" rx="2.5" ry="2.5" style="stroke:#181818;stroke-width:0.5;" width="56.21" x="240.9" y="1714.03"/><text fill="#000000" font-family="sans-serif" font-size="14" lengthAdjust="spacing" textLength="36.21" x="250.9" y="1737.0251">swap</text></g><g id="elem_enc1in"><ellipse cx="271.999" cy="56.7408" fill="#EEFFEE" rx="133.339" ry="50.7408" style="stroke:#181818;stroke-width:0.5;"/><text fill="#000000" font-family="sans-serif" font-size="14" font-weight="bold" lengthAdjust="spacing" textLength="172.3271" x="185.8354" y="33.9781">Preprocessed entities</text><text fill="#000000" font-family="monospace" font-size="10" lengthAdjust="spacing" textLength="60.2051" x="241.8964" y="46.562">N&#160;entities</text><text fill="#000000" font-family="sans-serif" font-size="14" lengthAdjust="spacing" textLength="4.4502" x="269.7739" y="61.9156">&#160;</text><text fill="#888888" font-family="sans-serif" font-size="10" lengthAdjust="spacing" textLength="34.9463" x="254.5258" y="74.4995">N=512</text><text fill="#888888" font-family="sans-serif" font-size="10" lengthAdjust="spacing" textLength="114.5215" x="214.7382" y="86.1402">Each having size 676+</text></g><!--entity enc1fc--><g id="elem_enc1fc"><polygon fill="#FFFF00" points="374.3,217.42,323.15,184.48,220.85,184.48,169.7,217.42,220.85,250.36,323.15,250.36,374.3,217.42" style="stroke:#181818;stroke-width:0.5;"/><text fill="#000000" font-family="sans-serif" font-size="14" font-weight="bold" lengthAdjust="spacing" textLength="102.2998" x="220.8499" y="202.4751">Encoder: FC?</text><text fill="#000000" font-family="monospace" font-size="10" lengthAdjust="spacing" textLength="30.1025" x="256.9485" y="215.0591">?&#160;&#8594;&#160;E</text><text fill="#000000" font-family="sans-serif" font-size="14" lengthAdjust="spacing" textLength="4.4502" x="269.7747" y="230.4126">&#160;</text><text fill="#888888" font-family="sans-serif" font-size="10" lengthAdjust="spacing" textLength="95.5811" x="224.2093" y="242.9966">N channels, E=256</text></g><g id="elem_entity_embeddings"><ellipse cx="268.9973" cy="1882.7715" fill="#EEFFEE" rx="110.2073" ry="24.4415" style="stroke:#181818;stroke-width:0.5;"/><text fill="#000000" font-family="sans-serif" font-size="14" font-weight="bold" lengthAdjust="spacing" textLength="148.4766" x="191.759" y="1880.6987">Entity embeddings</text><text fill="#000000" font-family="monospace" font-size="10" lengthAdjust="spacing" textLength="36.123" x="247.9357" y="1893.2827">(N,&#160;E)</text></g><!--link enc1in to enc1fc--><g id="link_enc1in_enc1fc"><path d="M272,107.95 C272,132.83 272,156.14 272,178.02 " fill="none" id="enc1in-to-enc1fc" style="stroke:#181818;stroke-width:1.0;"/><polygon fill="#181818" points="272,184.02,276,175.02,272,179.02,268,175.02,272,184.02" style="stroke:#181818;stroke-width:1.0;"/><text fill="#000000" font-family="sans-serif" font-size="13" lengthAdjust="spacing" textLength="35.0327" x="277.1323" y="150.5469">(N, ?)</text></g><!--link enc1fc to t1split--><g id="link_enc1fc_t1split"><path d="M272,250.6 C272,288.92 272,346.79 272,387.17 " fill="none" id="enc1fc-to-t1split" style="stroke:#181818;stroke-width:1.0;"/><polygon fill="#181818" points="272,393.17,276,384.17,272,388.17,268,384.17,272,393.17" style="stroke:#181818;stroke-width:1.0;"/><text fill="#000000" font-family="sans-serif" font-size="13" lengthAdjust="spacing" textLength="4.1323" x="294.8281" y="300.4269">&#160;</text><text fill="#000000" font-family="sans-serif" font-size="13" lengthAdjust="spacing" textLength="33.7886" x="280" y="315.5597">ReLU</text><text fill="#000000" font-family="sans-serif" font-size="13" lengthAdjust="spacing" textLength="36.3467" x="227.9969" y="270.4347">(N, E)</text><ellipse cx="272" cy="318.1125" fill="#FFFFFF" rx="6" ry="6" style="stroke:#181818;stroke-width:1.5;"/></g><!--reverse link t1h1 to t1split--><g id="link_t1h1_t1split"><path d="M167.38,431.3 C185.24,431.3 197.1,431.3 214.96,431.3 " fill="none" id="t1h1-backto-t1split" style="stroke:#181818;stroke-width:1.0;"/><polygon fill="#181818" points="161.38,431.3,170.38,435.3,166.38,431.3,170.38,427.3,161.38,431.3" style="stroke:#181818;stroke-width:1.0;"/></g><!--link t1split to t1h2--><g id="link_t1split_t1h2"><path d="M329.13,431.3 C343.64,431.3 352.15,431.3 366.66,431.3 " fill="none" id="t1split-to-t1h2" style="stroke:#181818;stroke-width:1.0;"/><polygon fill="#181818" points="372.66,431.3,363.66,427.3,367.66,431.3,363.66,435.3,372.66,431.3" style="stroke:#181818;stroke-width:1.0;"/></g><!--link t1h1 to t1h1swap1--><g id="link_t1h1_t1h1swap1"><path d="M111.87,450.37 C111.51,501.44 110.5228,640.3802 110.1628,690.8202 " fill="none" id="t1h1-to-t1h1swap1" style="stroke:#181818;stroke-width:1.0;"/><polygon fill="#181818" points="110.12,696.82,114.1841,687.8488,110.1557,691.8201,106.1843,687.7917,110.12,696.82" style="stroke:#181818;stroke-width:1.0;"/><text fill="#000000" font-family="sans-serif" font-size="13" lengthAdjust="spacing" textLength="48.9976" x="116.6523" y="512.2969">(N, E/2)</text></g><!--link t1h2 to t1h2swap1--><g id="link_t1h2_t1h2swap1"><path d="M422.32,450.37 C423.23,501.44 425.683,640.381 426.583,690.821 " fill="none" id="t1h2-to-t1h2swap1" style="stroke:#181818;stroke-width:1.0;"/><polygon fill="#181818" points="426.69,696.82,430.5288,687.7501,426.6008,691.8208,422.5301,687.8928,426.69,696.82" style="stroke:#181818;stroke-width:1.0;"/><text fill="#000000" font-family="sans-serif" font-size="13" lengthAdjust="spacing" textLength="48.9976" x="428.6123" y="512.2969">(N, E/2)</text></g><!--link t1h1swap1 to t1h1conv--><g id="link_t1h1swap1_t1h1conv"><path d="M109.86,733.9 C109.71,753.48 109.5064,779.6302 109.3164,804.2102 " fill="none" id="t1h1swap1-to-t1h1conv" style="stroke:#181818;stroke-width:1.0;"/><polygon fill="#181818" points="109.27,810.21,113.3394,801.2412,109.3086,805.2101,105.3397,801.1794,109.27,810.21" style="stroke:#181818;stroke-width:1.0;"/><text fill="#000000" font-family="sans-serif" font-size="13" lengthAdjust="spacing" textLength="48.9976" x="114.7523" y="776.5969">(E/2, N)</text></g><!--link t1h2swap1 to t1h2conv--><g id="link_t1h2swap1_t1h2conv"><path d="M427.27,733.9 C427.58,753.48 427.9848,779.6308 428.3748,804.2108 " fill="none" id="t1h2swap1-to-t1h2conv" style="stroke:#181818;stroke-width:1.0;"/><polygon fill="#181818" points="428.47,810.21,432.3267,801.1477,428.3907,805.2106,424.3277,801.2746,428.47,810.21" style="stroke:#181818;stroke-width:1.0;"/><text fill="#000000" font-family="sans-serif" font-size="13" lengthAdjust="spacing" textLength="48.9976" x="433.1323" y="776.5969">(E/2, N)</text></g><!--link t1h1conv to t1sum--><g id="link_t1h1conv_t1sum"><path d="M171.32,845.32 C196.59,845.32 218.34,845.32 237.78,845.32 " fill="none" id="t1h1conv-to-t1sum" style="stroke:#181818;stroke-width:1.0;"/><polygon fill="#181818" points="243.78,845.32,234.78,841.32,238.78,845.32,234.78,849.32,243.78,845.32" style="stroke:#181818;stroke-width:1.0;"/><text fill="#000000" font-family="sans-serif" font-size="13" lengthAdjust="spacing" textLength="36.3467" x="189.62" y="838.3869">(E, N)</text></g><!--reverse link t1sum to t1h2conv--><g id="link_t1sum_t1h2conv"><path d="M300.35,845.32 C319.74,845.32 341.32,845.32 366.48,845.32 " fill="none" id="t1sum-backto-t1h2conv" style="stroke:#181818;stroke-width:1.0;"/><polygon fill="#181818" points="294.35,845.32,303.35,849.32,299.35,845.32,303.35,841.32,294.35,845.32" style="stroke:#181818;stroke-width:1.0;"/><text fill="#000000" font-family="sans-serif" font-size="13" lengthAdjust="spacing" textLength="36.3467" x="312.38" y="838.3869">(E, N)</text></g><!--link t1sum to t1swap--><g id="link_t1sum_t1swap"><path d="M269,863.84 C269,888.34 269,926.56 269,950.95 " fill="none" id="t1sum-to-t1swap" style="stroke:#181818;stroke-width:1.0;"/><polygon fill="#181818" points="269,956.95,273,947.95,269,951.95,265,947.95,269,956.95" style="stroke:#181818;stroke-width:1.0;"/><text fill="#000000" font-family="sans-serif" font-size="13" lengthAdjust="spacing" textLength="36.3467" x="274.1323" y="923.1769">(N, E)</text></g><!--link t1swap to t1fc1--><g id="link_t1swap_t1fc1"><path d="M269,993.8 C269,1016.94 269,1052.08 269,1080.94 " fill="none" id="t1swap-to-t1fc1" style="stroke:#181818;stroke-width:1.0;"/><polygon fill="#181818" points="269,1086.94,273,1077.94,269,1081.94,265,1077.94,269,1086.94" style="stroke:#181818;stroke-width:1.0;"/><text fill="#000000" font-family="sans-serif" font-size="13" lengthAdjust="spacing" textLength="4.1323" x="288.2781" y="1038.4769">&#160;</text><text fill="#000000" filter="url(#b1gosfqozvix2i0)" font-family="sans-serif" font-size="13" lengthAdjust="spacing" textLength="40.6885" x="270" y="1053.6097">ReLU?</text><text fill="#000000" font-family="sans-serif" font-size="13" lengthAdjust="spacing" textLength="36.3467" x="222.7582" y="1013.5361">(N, E)</text></g><!--link t1fc1 to t1fc2--><g id="link_t1fc1_t1fc2"><path d="M269,1153.69 C269,1183.92 269,1222.8 269,1252.99 " fill="none" id="t1fc1-to-t1fc2" style="stroke:#181818;stroke-width:1.0;"/><polygon fill="#181818" points="269,1258.99,273,1249.99,269,1253.99,265,1249.99,269,1258.99" style="stroke:#181818;stroke-width:1.0;"/><text fill="#000000" font-family="sans-serif" font-size="13" lengthAdjust="spacing" textLength="4.1323" x="291.8281" y="1203.3469">&#160;</text><text fill="#000000" font-family="sans-serif" font-size="13" lengthAdjust="spacing" textLength="33.7886" x="277" y="1218.4797">ReLU</text><text fill="#000000" font-family="sans-serif" font-size="13" lengthAdjust="spacing" textLength="61.2168" x="197.8167" y="1173.2995">(N, 1024)</text><ellipse cx="269" cy="1203.355" fill="#FFFFFF" rx="6" ry="6" style="stroke:#181818;stroke-width:1.5;"/></g><!--link t1fc2 to r1swap1--><g id="link_t1fc2_r1swap1"><path d="M269,1325.47 C269,1363.16 269,1418.14 269,1447.88 " fill="none" id="t1fc2-to-r1swap1" style="stroke:#181818;stroke-width:1.0;"/><polygon fill="#181818" points="269,1453.88,273,1444.88,269,1448.88,265,1444.88,269,1453.88" style="stroke:#181818;stroke-width:1.0;"/><text fill="#000000" font-family="sans-serif" font-size="13" lengthAdjust="spacing" textLength="4.1323" x="291.8281" y="1377.2269">&#160;</text><text fill="#000000" font-family="sans-serif" font-size="13" lengthAdjust="spacing" textLength="33.7886" x="277" y="1392.3597">ReLU</text><text fill="#000000" font-family="sans-serif" font-size="13" lengthAdjust="spacing" textLength="36.3467" x="221.137" y="1345.2615">(N, E)</text><text fill="#888888" font-family="sans-serif" font-size="10" lengthAdjust="spacing" textLength="52.334" x="209.4879" y="1357.6097">(512, 256)</text><ellipse cx="269" cy="1389.6563" fill="#FFFFFF" rx="6" ry="6" style="stroke:#181818;stroke-width:1.5;"/></g><!--link r1swap1 to r1conv1--><g id="link_r1swap1_r1conv1"><path d="M269,1490.82 C269,1510.4 269,1536.56 269,1561.13 " fill="none" id="r1swap1-to-r1conv1" style="stroke:#181818;stroke-width:1.0;"/><polygon fill="#181818" points="269,1567.13,273,1558.13,269,1562.13,265,1558.13,269,1567.13" style="stroke:#181818;stroke-width:1.0;"/><text fill="#000000" font-family="sans-serif" font-size="13" lengthAdjust="spacing" textLength="36.3467" x="274.1323" y="1533.5169">(E, N)</text></g><!--link r1conv1 to r1swap2--><g id="link_r1conv1_r1swap2"><path d="M269,1637.53 C269,1662.1 269,1688.18 269,1707.7 " fill="none" id="r1conv1-to-r1swap2" style="stroke:#181818;stroke-width:1.0;"/><polygon fill="#181818" points="269,1713.7,273,1704.7,269,1708.7,265,1704.7,269,1713.7" style="stroke:#181818;stroke-width:1.0;"/><text fill="#000000" font-family="sans-serif" font-size="13" lengthAdjust="spacing" textLength="36.3467" x="274.1323" y="1680.0969">(E, N)</text></g><!--link r1swap2 to entity_embeddings--><g id="link_r1swap2_entity_embeddings"><path d="M269,1750.81 C269,1777.48 269,1822.15 269,1852.04 " fill="none" id="r1swap2-to-entity_embeddings" style="stroke:#181818;stroke-width:1.0;"/><polygon fill="#181818" points="269,1858.04,273,1849.04,269,1853.04,265,1849.04,269,1858.04" style="stroke:#181818;stroke-width:1.0;"/><text fill="#000000" font-family="sans-serif" font-size="13" lengthAdjust="spacing" textLength="4.1323" x="291.8281" y="1802.3969">&#160;</text><text fill="#000000" font-family="sans-serif" font-size="13" lengthAdjust="spacing" textLength="33.7886" x="277" y="1817.5297">ReLU</text><text fill="#000000" font-family="sans-serif" font-size="13" lengthAdjust="spacing" textLength="36.3467" x="223.0294" y="1770.2451">(N, E)</text><ellipse cx="269" cy="1800.2175" fill="#FFFFFF" rx="6" ry="6" style="stroke:#181818;stroke-width:1.5;"/></g><!--SRC=[pLZTSjf65BxNKvp8T023Vr0RDqCD7iV5JQUfswR9D1VCU1Pf0Ot5IgDT6TECR_i0VSG-ISzP_Qr0O9pqefunYBFdVET_zwpadIyY5hC5U7pAaa2zvm_gCl1dOi650XS_U6nPSY-sakicLBpA4l2fignpgLO17reV97UPvF390dZDtBiVuZ0HtbKOX34Sy2ct7YraFicuhMQpIV_mGVc1hrOmJOIh_518lMAzo7z38-PHm5pUQgW7rOM6v2nsvzsKtaPbBt8E3mPWsqHPpls0mrTInL4egu9j60xW59b845TzhMImXJdZCnIKpnsKIIOebicSebWEsCPLpPa188FMOVANsZjQUy15AzUh_UB2quxGSynL4ekATaAnY2aF5GOL_eXP984pTmw1BpY4Kyq7Ir_DVPGF8ow02GyQRX1AZXAZ1xQ80jx7Hq1UDfjnxrPXeblskKlPwyVS6zfTiDKo70j2bVJh_4Il3kssbXmCmUH7tfnXB0ow5Yz5RJFHfcvjQ1UoI6bRsv07GJlHMQyCUopidBT3FpgQKQSYTTPK9aAFPwe4MnZWrGXCo7FDeLsUaBlRKP3Luz8jmTQrP7PLTKn3eVgBK8GoejGEpwN_9-_tJhLgmjEgYJWyFo7clOn8WxVLbDnKigZ6fZHZhrwzgbgJ1hemfgY0efrlK0keLSIpFcx2zqmnwqKKX-XQ4dDe4A7LyBqihbJg-Tw1L60Ix8susRhG2n1h5s3ksHwuEUjdm6VXtLz99h2XgWdNLz2wlcfNb5vVrNlqXZ-m6INzcHuzXLswiwU6xUwyZvcGqp1UuF5XgZNezRxzbl24Vv5dErMKBkwbQBk3Lw6u3uD4RxccTeDUxw1kZY_nRwU6qhzzz6ntxvT4HOcgw4r9Qqrx5IwYKD0WiBrjuI34bCpuhlxQ03SYzhIE8cpRLEbyUNvTjbBgcbklQMnXyUepDwCwMCEX9z6tRabDUCVbd4NLYiXef2oDbr1n61JeK0DpYSV6FTk8HqbU2yXbTimK1YEz1lRtP04dy3Dd0h-uSe-hIOxMKMVLhDQ0RfKlAxsvWRCUJTikAhrMwLXyqSbN4uYtlhYhs4w4LeCXo8Iowo_8yWQ3ewCXag2FQI8gxF9_0yECmViv1y6NUk1pMIAv10QJP0RBEKTXXSizgTA1a4KHZfXIos5MQKs5qH7DyY1zZ-k5u-FZIQB0Hvaml9CmuGel0yZCS99agotcKoYpaVJfW61LrSRaz9b1MSVv7yJbTD_0A5_XDSLU_iT_Da9hkrK8iJ-RA_3yc6TNX7ISuSBj-JXVsx_Y34qcIObt2cmEtBhIyVwc-clmikUCnOZk5NDsxuiPK2F0sRTd7Hh_QAOWp2dDgYFXOXV6VHniBaZu0lxvwsyOfQZkd0d10zc5qS1vUMQtuM35Wo1SMccDvvOLQAsRBboqISarNaCnNCOXFnQjhnzmwyTkLYLLNq5fnr0z6U7b4a4a3wP739CbA0fa2LzCiESnFOCH3S0jvsZEcKTwe2oit8WIYAmPjGdW7N_x8UKsfmxLc_TmyGrYmK5lJT69KolW509ElG21mlbHReQcw2V0IYC02qdlCCDu_b51uIdWOaMo08jJu9P-po_8nzgDxkpiJ5_kg5VaaaKT5sUC3ZsD4KHWYKDnvvoinW8JZMPH40ZouyUFVVXHm4yyPfXIcazw7Yp39F36OXd6T_hY6MBFg0nVZWNT5R7e9cmIh7JlD2LsvAfwgSJpdFgoFvrElvimzwwVdkuwjtbsvpr2f7ZJjr5A1ekpYqLNN9eo4qqd-SH9Yy5WSpIRiutDdCu8ZYBPrTd0e91tTvWE7jnIvmnwOu5XkStROJ3QWk8y6sNDjSnQmw0qWJURxfMipYQh4LIPB2YWoI93oB7JSaGwxdsj4SbboqJIzPi2byicA2hVdIQjjc3CEb5ZFD87xK4AsvLIStsbgqaNJeeqXCF3qU4Xu1qUYKEz9VLEdM-gkrBP_eL5EMJP-HLOsWOkCj1KEZF3ASmWDNLRO7MloVJaegIE1Csz1jqikppkPHFUZaQXoCRRcwIY6vN6rGve5szkAjDG2u-2Bk3URPfchLLkh0kYzypoJoDVc562fEMIwIcSShOwLUelEGkCn_8Kn1DkTQitN0_FDAaFBw91IRFDMYiYLi3MOMmS4dfuBnBdv8dxbBvp8t-S1GxEA41VMYDpur1AI8IlP3lRQ1UCNiVEBh9NRdcTqWbL01IcQWwinTZHnsXQYfWrNOdwv3L0Sl6CkONhtGB4k1d43dDLwPS9a5gHBXVoAKSQR1qXF7xIY56eCqeMGtjTiKRJO-QQBAu-_Wi0]--></g></svg>